# AST/ASF file generated using VICON BodyLanguage
# -----------------------------------------------
:version 1.10
:name VICON
:units
  mass 1.0
  length 0.45
  angle deg
:documentation
   .ast/.asf automatically generated from VICON data using
   VICON BodyBuilder and BodyLanguage model FoxedUp or BRILLIANT.MOD
:root
   order TX TY TZ RX RY RZ
   axis XYZ
   position 0 0 0  
   orientation 0 0 0 
:bonedata
  begin
     id 1 
     name lhipjoint
     direction 0.578396 -0.714046 0.394458 
     length 2.21935 
     axis 0 0 0  XYZ
  end
  begin
     id 2 
     name lfemur
     direction 0.34202 -0.939693 0  
     length 6.39105  
     axis 0 0 20  XYZ
    dof rx ry rz
    limits (-160.0 20.0)
           (-70.0 70.0)
           (-60.0 70.0)
  end
  begin
     id 3 
     name ltibia
     direction 0.34202 -0.939693 0   
     length 6.99037   
     axis 0 0 20   XYZ
    dof rx
    limits (-10.0 170.0)
  end
  begin
     id 4 
     name lfoot
     direction 0.0582372 -0.160005 0.985397   
     length 2.06111   
     axis -90 7.62852e-016 20   XYZ
    dof rx rz
    limits (-45.0 90.0)
           (-70.0 20.0)
  end
  begin
     id 5 
     name ltoes
     direction 1.53556e-011 -4.21875e-011 1   
     length 1.04074   
     axis -90 7.62852e-016 20   XYZ
    dof rx
    limits (-90.0 20.0)
  end
  begin
     id 6 
     name rhipjoint
     direction -0.558179 -0.726269 0.40121   
     length 2.182  
     axis 0 0 0  XYZ 
  end
  begin
     id 7 
     name rfemur
     direction -0.34202 -0.939693 0   
     length 6.51172   
     axis 0 0 -20   XYZ
    dof rx ry rz
    limits (-160.0 20.0)
           (-70.0 70.0)
           (-70.0 60.0)
  end
  begin
     id 8 
     name rtibia
     direction -0.34202 -0.939693 0   
     length 7.02607   
     axis 0 0 -20   XYZ
    dof rx
    limits (-10.0 170.0)
 end
 begin
     id 9 
     name rfoot
     direction -0.0788856 -0.216737 0.973038   
     length 1.96734  
     axis -90 -7.62852e-016 -20   XYZ
    dof rx rz
    limits (-45.0 90.0)
           (-20.0 70.0)
  end
  begin
     id 10 
     name rtoes
     direction -1.53567e-011 -4.21783e-011 1   
     length 0.990825   
     axis -90 -7.62852e-016 -20   XYZ
    dof rx
    limits (-90.0 20.0)
  end
  begin
     id 11 
     name lowerback
     direction 0.00668177 0.999323 -0.0361741   
     length 1.7655   
     axis 0 0 0   XYZ
    dof rx ry rz
    limits (-20.0 45.0)
           (-30.0 30.0)
           (-30.0 30.0)
  end
  begin
     id 12 
     name upperback
     direction -0.00222086 0.99851 0.0545167   
     length 1.74912   
     axis 0 0 0   XYZ
    dof rx ry rz
    limits (-20.0 45.0)
           (-30.0 30.0)
           (-30.0 30.0)
  end
  begin
     id 13 
     name thorax
     direction -0.00733971 0.997496 0.0703443   
     length 1.75715   
     axis 0 0 0   XYZ
    dof rx ry rz
    limits (-20.0 45.0)
           (-30.0 30.0)
           (-30.0 30.0)
  end
  begin
     id 14 
     name lowerneck
     direction 0.0279797 0.994795 0.0979765   
     length 1.46939   
     axis 0 0 0   XYZ
    dof rx ry rz
    limits (-20.0 45.0)
           (-30.0 30.0)
           (-30.0 30.0)
  end
  begin
     id 15 
     name upperneck
     direction 0.00339187 0.976776 -0.214238   
     length 1.48018   
     axis 0 0 0   XYZ
    dof rx ry rz
    limits (-20.0 45.0)
           (-30.0 30.0)
           (-30.0 30.0)
  end
  begin
     id 16
     name head
     direction -0.00263506 0.996603 -0.0823096  
     length 1.4976  
     axis 0 0 0   XYZ
    dof rx ry rz
    limits (-20.0 45.0)
           (-30.0 30.0)
           (-30.0 30.0)
  end
  begin
     id 17 
     name lclavicle
     direction 0.894044 0.44508 -0.0508781  
     length 3.03024  
     axis 0 0 0   XYZ
    dof ry rz
    limits (-20.0 10.0)
           (0.0 20.0)
  end
  begin
     id 18 
     name lhumerus
     direction 1 -4.48961e-011 -2.39475e-018   
     length 4.4661   
     axis 180 -30 -90   XYZ
    dof rx ry rz
    limits (-60.0 90.0)
           (-90.0 90.0)
           (-90.0 90.0)
  end
  begin
     id 19
     name lradius
     direction 1 -4.48961e-011 9.29328e-028   
     length 3.41414   
     axis 180 -30 -90   XYZ
    dof rx
    limits (-10.0 170.0)
  end
  begin
     id 20
     name lwrist
     direction 1 -4.48985e-011 1.53461e-026   
     length 1.70707   
     axis -1.09697e-014 90 90   XYZ
    dof ry
    limits (-180.0 0.0)
 end
  begin
     id 21 
     name lhand
     direction 1 -4.48966e-011 3.06923e-026   
     length 0.328298   
     axis -1.95843e-014 90 90   XYZ
    dof rx rz
    limits (-90.0 90.0)
           (-45.0 45.0)
  end
  begin
     id 22 
     name lfingers
     direction 1 -4.48893e-011 6.13845e-026   
     length 0.264682   
     axis -3.91686e-014 90 90   XYZ
    dof rx
    limits (0.0 90.0)
  end
  begin
     id 23
     name lthumb
     direction 0.707107 -6.34876e-011 0.707107   
     length 0.380032   
     axis -90 45 2.85299e-015   XYZ
    dof rx rz
    limits (-45.0 45.0)
           (-45.0 45.0)
  end
  begin
     id 24 
     name rclavicle
     direction -0.936955 0.347862 -0.0332887   
     length 3.26927  
     axis 0 0 0   XYZ 
    dof ry rz
    limits (-10.0 20.0)
           (-20.0 0.0)
  end
  begin
     id 25 
     name rhumerus
     direction -1 -4.4896e-011 1.78637e-018  
     length 4.40431   
     axis 180 30 90   XYZ
    dof rx ry rz
    limits (-90.0 60.0)
           (-90.0 90.0)
           (-90.0 90.0)
  end
  begin
     id 26 
     name rradius
     direction -1 -4.48955e-011 9.34036e-027   
     length 3.04688   
     axis 180 30 90   XYZ
    dof rx
    limits (-10.0 170.0)
  end
  begin
     id 27 
     name rwrist
     direction -1 -4.49011e-011 1.53461e-026   
     length 1.52344   
     axis -1.09697e-014 -90 -90   XYZ
    dof ry
    limits (-180.0 0.0)
  end
  begin
     id 28
     name rhand
     direction -1 -4.48834e-011 3.06923e-026   
     length 0.500489   
     axis -1.95843e-014 -90 -90   XYZ
    dof rx rz
    limits (-90.0 90.0)
           (-45.0 45.0)
  end
  begin
     id 29
     name rfingers
     direction -1 -4.48967e-011 6.13845e-026   
     length 0.403507   
     axis -3.91686e-014 -90 -90   XYZ
    dof rx
    limits (0.0 90.0)
  end
  begin
     id 30
     name rthumb
     direction -0.707107 -6.34826e-011 0.707107   
     length 0.579358   
     axis -90 -45 -2.85299e-015   XYZ
    dof rx rz
    limits (-45.0 45.0)
           (-45.0 45.0)
  end
:hierarchy
  begin
    root lhipjoint rhipjoint lowerback
    lhipjoint lfemur
    lfemur ltibia
    ltibia lfoot
    lfoot ltoes
    rhipjoint rfemur
    rfemur rtibia
    rtibia rfoot
    rfoot rtoes
    lowerback upperback
    upperback thorax
    thorax lowerneck lclavicle rclavicle
    lowerneck upperneck
    upperneck head
    lclavicle lhumerus
    lhumerus lradius
    lradius lwrist
    lwrist lhand lthumb
    lhand lfingers
    rclavicle rhumerus
    rhumerus rradius
    rradius rwrist
    rwrist rhand rthumb
    rhand rfingers
  end

#!OML:ASF H:\IndianDance\Patient Classification 1\Patient 1\Session 1\dancer.ASF
:FULLY-SPECIFIED
:DEGREES
1
root 4.52678 13.3772 6.39474 -176.366 -0.496163 -176.872
lowerback 4.70022 2.91668 1.01835
upperback -5.73158 3.85829 0.879193
thorax -8.66312 1.75823 -0.0938827
lowerneck -20.0586 2.8451 1.6032
upperneck 24.26 1.20222 5.81472
head 11.1894 1.19446 1.99457
rclavicle 1.03617e-014 -4.47266e-015
rhumerus -9.81703 33.9019 -9.20687
rradius 39.0697
rwrist -8.25169
rhand -4.86866 14.8131
rfingers 7.12502
rthumb 20.9196 -14.0789
lclavicle 1.03617e-014 -4.47266e-015
lhumerus -1.34577 -34.3839 1.3708
lradius 33.9058
lwrist 14.7921
lhand -2.85287 -0.387632
lfingers 7.12502
lthumb 22.8552 28.2781
rfemur -38.0223 -39.9232 21.9602
rtibia 75.6136
rfoot -33.7441 -3.12593
rtoes 14.0857
lfemur -36.053 40.7317 -13.1018
ltibia 75.243
lfoot -31.5307 4.64808
ltoes 2.85271
2
root 4.52468 13.3814 6.39468 -176.368 -0.501712 -176.85
lowerback 4.71537 2.91466 1.02415
upperback -5.74342 3.8561 0.883789
thorax -8.68492 1.75629 -0.0930637
lowerneck -20.0419 2.84923 1.57933
upperneck 24.2345 1.1836 5.92517
head 11.1765 1.19629 2.03507
rclavicle -3.85083e-014 -1.2424e-014
rhumerus -9.84778 33.7943 -9.23225
rradius 39.0375
rwrist -8.51432
rhand -4.79725 14.8602
rfingers 7.12502
rthumb 20.9882 -14.0241
lclavicle -3.85083e-014 -1.2424e-014
lhumerus -1.28584 -34.3012 1.37668
lradius 33.8828
lwrist 14.7888
lhand -2.67766 -0.473812
lfingers 7.12502
lthumb 23.0233 28.171
rfemur -37.9819 -39.8834 21.9788
rtibia 75.5498
rfoot -33.7143 -3.181
rtoes 13.9313
lfemur -36.0402 40.6644 -13.0916
ltibia 75.1988
lfoot -31.4826 4.69853
ltoes 2.7991
3
root 4.52147 13.3862 6.39407 -176.373 -0.495019 -176.841
lowerback 4.72711 2.9005 1.06382
upperback -5.77566 3.83693 0.852165
thorax -8.72202 1.7418 -0.147381
lowerneck -19.9332 2.88573 1.66082
upperneck 24.1935 1.1795 6.01878
head 11.1416 1.2089 2.05136
rclavicle 4.00303e-014 1.60022e-014
rhumerus -9.87894 33.939 -9.27438
rradius 39.1414
rwrist -8.96271
rhand -4.71714 14.8286
rfingers 7.12502
rthumb 21.0652 -14.0472
lclavicle 4.00303e-014 1.60022e-014
lhumerus -1.25067 -34.3801 1.26555
lradius 33.906
lwrist 14.7455
lhand -2.58996 -0.52853
lfingers 7.12502
lthumb 23.1074 28.1058
rfemur -37.9446 -39.8252 21.9534
rtibia 75.4862
rfoot -33.6693 -3.13782
rtoes 14.1146
lfemur -36.0135 40.6167 -13.1081
ltibia 75.1516
lfoot -31.4363 4.84045
ltoes 2.60351
4
root 4.51947 13.3892 6.39379 -176.369 -0.495474 -176.815
lowerback 4.73403 2.90768 1.09587
upperback -5.77265 3.84971 0.850345
thorax -8.72045 1.74605 -0.168924
lowerneck -19.9664 2.87646 1.53011
upperneck 24.1671 1.14755 6.23107
head 11.1365 1.20857 2.146
rclavicle 1.53437e-014 1.07344e-014
rhumerus -9.93089 33.9476 -9.25096
rradius 39.2133
rwrist -9.2901
rhand -4.79319 14.8601
rfingers 7.12502
rthumb 20.9921 -14.0238
lclavicle 1.53437e-014 1.07344e-014
lhumerus -1.1492 -34.4702 1.18781
lradius 33.9377
lwrist 14.7478
lhand -2.58173 -0.576371
lfingers 7.12502
lthumb 23.1153 28.057
rfemur -37.9238 -39.8105 21.974
rtibia 75.4252
rfoot -33.6142 -3.12922
rtoes 14.1174
lfemur -36.0006 40.5376 -13.1077
ltibia 75.1083
lfoot -31.3854 4.96203
ltoes 2.48131
5
root 4.51869 13.3945 6.39287 -176.365 -0.474627 -176.807
lowerback 4.73792 2.90171 1.05167
upperback -5.78963 3.83734 0.858375
thorax -8.74492 1.74223 -0.13503
lowerneck -19.9576 2.89564 1.51767
upperneck 24.1787 1.13325 6.36463
head 11.1393 1.21529 2.19455
rclavicle 5.93869e-015 8.94531e-015
rhumerus -9.91446 33.9459 -9.24233
rradius 39.2049
rwrist -9.21902
rhand -5.08003 14.99
rfingers 7.12502
rthumb 20.7165 -13.9243
lclavicle 5.93869e-015 8.94531e-015
lhumerus -1.16967 -34.427 1.15889
lradius 33.9879
lwrist 14.7476
lhand -2.58119 -0.626305
lfingers 7.12502
lthumb 23.1159 28.007
rfemur -37.8825 -39.7589 21.9838
rtibia 75.3486
rfoot -33.6058 -3.14267
rtoes 14.1835
lfemur -35.9812 40.509 -13.0913
ltibia 75.059
lfoot -31.3603 4.87606
ltoes 2.92634
6
root 4.5173 13.3993 6.39218 -176.362 -0.463636 -176.794
lowerback 4.74421 2.90083 1.04357
upperback -5.80416 3.83453 0.854757
thorax -8.76478 1.74053 -0.134652
lowerneck -19.9445 2.9082 1.49679
upperneck 24.1712 1.11185 6.50804
head 11.1342 1.21929 2.24652
rclavicle 3.47873e-014 1.10325e-014
rhumerus -9.93552 33.9567 -9.24389
rradius 39.226
rwrist -9.32075
rhand -5.19699 15.0776
rfingers 7.12502
rthumb 20.6041 -13.8489
lclavicle 3.47873e-014 1.10325e-014
lhumerus -1.12684 -34.4113 1.1133
lradius 34.012
lwrist 14.7648
lhand -2.55167 -0.657142
lfingers 7.12502
lthumb 23.1442 27.9726
rfemur -37.8463 -39.7182 21.9927
rtibia 75.2754
rfoot -33.5754 -3.14784
rtoes 14.2244
lfemur -35.9603 40.4659 -13.0854
ltibia 75.0084
lfoot -31.3214 4.89846
ltoes 3.0434
7
root 4.5162 13.4043 6.39147 -176.358 -0.45191 -176.782
lowerback 4.75077 2.90028 1.03004
upperback -5.8196 3.83161 0.850324
thorax -8.78612 1.73908 -0.132145
lowerneck -19.9347 2.92167 1.48062
upperneck 24.1682 1.08865 6.65332
head 11.1317 1.22301 2.29829
rclavicle -3.47997e-014 -3.27995e-015
rhumerus -9.95663 33.9772 -9.24293
rradius 39.2477
rwrist -9.37929
rhand -5.31487 15.1697
rfingers 7.12502
rthumb 20.4909 -13.769
lclavicle -3.47997e-014 -3.27995e-015
lhumerus -1.08258 -34.379 1.07174
lradius 34.033
lwrist 14.8
lhand -2.5363 -0.669818
lfingers 7.12502
lthumb 23.1589 27.9581
rfemur -37.81 -39.6789 22.0024
rtibia 75.1983
rfoot -33.5447 -3.15298
rtoes 14.2674
lfemur -35.9383 40.4286 -13.0804
ltibia 74.9536
lfoot -31.2818 4.91652
ltoes 3.15687
8
root 4.51533 13.4093 6.39082 -176.353 -0.44106 -176.77
lowerback 4.75771 2.90049 1.01426
upperback -5.83388 3.82961 0.845923
thorax -8.80657 1.73829 -0.128468
lowerneck -19.9377 2.93373 1.46458
upperneck 24.1717 1.06166 6.80081
head 11.1343 1.22552 2.35076
rclavicle -3.89245e-014 -2.41523e-014
rhumerus -9.97778 33.9954 -9.23872
rradius 39.2654
rwrist -9.40213
rhand -5.41748 15.2662
rfingers 7.12502
rthumb 20.3923 -13.6831
lclavicle -3.89245e-014 -2.41523e-014
lhumerus -1.03204 -34.3237 1.03727
lradius 34.0468
lwrist 14.854
lhand -2.53201 -0.666126
lfingers 7.12502
lthumb 23.163 27.9612
rfemur -37.7755 -39.643 22.0158
rtibia 75.1218
rfoot -33.516 -3.16028
rtoes 14.298
lfemur -35.9172 40.3956 -13.0751
ltibia 74.8964
lfoot -31.2428 4.93194
ltoes 3.25605
9
root 4.51456 13.4144 6.39028 -176.345 -0.432261 -176.76
lowerback 4.76505 2.90021 0.996589
upperback -5.84881 3.82668 0.840041
thorax -8.82799 1.7371 -0.125221
lowerneck -19.9463 2.94575 1.45616
upperneck 24.1791 1.03172 6.94641
head 11.1398 1.22717 2.40107
rclavicle -2.44754e-014 -4.37326e-015
rhumerus -9.99784 34.019 -9.23227
rradius 39.2844
rwrist -9.4115
rhand -5.48022 15.3518
rfingers 7.12502
rthumb 20.332 -13.6039
lclavicle -2.44754e-014 -4.37326e-015
lhumerus -0.979556 -34.2525 1.00707
lradius 34.0537
lwrist 14.9196
lhand -2.53914 -0.648501
lfingers 7.12502
lthumb 23.1562 27.9797
rfemur -37.7448 -39.6111 22.0297
rtibia 75.0457
rfoot -33.4872 -3.16444
rtoes 14.3275
lfemur -35.8988 40.3653 -13.0742
ltibia 74.8369
lfoot -31.2053 4.94653
ltoes 3.34142
10
root 4.51386 13.4195 6.38991 -176.335 -0.42701 -176.748
lowerback 4.77318 2.89857 0.98169
upperback -5.86267 3.82221 0.8335
thorax -8.84848 1.73501 -0.124037
lowerneck -19.9639 2.95753 1.45109
upperneck 24.1893 0.999527 7.09231
head 11.1483 1.2283 2.45091
rclavicle 1.16786e-014 3.37934e-015
rhumerus -10.0148 34.046 -9.22297
rradius 39.3048
rwrist -9.42509
rhand -5.49743 15.4213
rfingers 7.12502
rthumb 20.3154 -13.5362
lclavicle 1.16786e-014 3.37934e-015
lhumerus -0.925692 -34.1721 0.978339
lradius 34.0543
lwrist 14.9873
lhand -2.55771 -0.622932
lfingers 7.12502
lthumb 23.1384 28.0075
rfemur -37.7176 -39.5851 22.0472
rtibia 74.9701
rfoot -33.4574 -3.16674
rtoes 14.3483
lfemur -35.8837 40.3359 -13.075
ltibia 74.7759
lfoot -31.1684 4.96691
ltoes 3.39334
11
root 4.51316 13.4244 6.3897 -176.324 -0.424214 -176.737
lowerback 4.78032 2.89712 0.975098
upperback -5.87364 3.81852 0.820685
thorax -8.86419 1.73274 -0.134057
lowerneck -19.9912 2.96799 1.44958
upperneck 24.1984 0.962707 7.24221
head 11.1586 1.22834 2.50117
rclavicle 1.38155e-014 1.16289e-014
rhumerus -10.0371 34.0745 -9.21849
rradius 39.3284
rwrist -9.45047
rhand -5.47763 15.4682
rfingers 7.12502
rthumb 20.3344 -13.4872
lclavicle 1.38155e-014 1.16289e-014
lhumerus -0.860366 -34.0834 0.942591
lradius 34.0476
lwrist 15.0432
lhand -2.58594 -0.593115
lfingers 7.12502
lthumb 23.1113 28.0407
rfemur -37.6947 -39.5653 22.0648
rtibia 74.8963
rfoot -33.4266 -3.16219
rtoes 14.3717
lfemur -35.8711 40.308 -13.0805
ltibia 74.7141
lfoot -31.1328 4.99861
ltoes 3.40156
12
root 4.5125 13.4293 6.38964 -176.312 -0.423309 -176.726
lowerback 4.78765 2.8935 0.967724
upperback -5.88395 3.81195 0.808703
thorax -8.87943 1.72917 -0.142409
lowerneck -20.019 2.97971 1.45294
upperneck 24.2043 0.926756 7.3902
head 11.168 1.22899 2.55002
rclavicle 2.84511e-015 2.38542e-015
rhumerus -10.0503 34.1087 -9.21006
rradius 39.352
rwrist -9.48377
rhand -5.43482 15.4961
rfingers 7.12502
rthumb 20.3756 -13.4549
lclavicle 2.84511e-015 2.38542e-015
lhumerus -0.80151 -33.9984 0.906792
lradius 34.0375
lwrist 15.0812
lhand -2.62012 -0.56325
lfingers 7.12502
lthumb 23.0785 28.0747
rfemur -37.675 -39.55 22.0841
rtibia 74.8233
rfoot -33.3949 -3.15426
rtoes 14.3926
lfemur -35.8606 40.2802 -13.0871
ltibia 74.6517
lfoot -31.0997 5.02551
ltoes 3.41296
13
root 4.51191 13.4342 6.38969 -176.299 -0.423343 -176.715
lowerback 4.79182 2.89 0.969185
upperback -5.89062 3.80595 0.788322
thorax -8.88761 1.72525 -0.164344
lowerneck -20.0486 2.99035 1.46499
upperneck 24.2015 0.885679 7.54205
head 11.175 1.22852 2.59788
rclavicle -1.30452e-015 -2.68359e-015
rhumerus -10.0688 34.132 -9.21644
rradius 39.3686
rwrist -9.50893
rhand -5.37942 15.5117
rfingers 7.12502
rthumb 20.4288 -13.4337
lclavicle -1.30452e-015 -2.68359e-015
lhumerus -0.733392 -33.9189 0.851079
lradius 34.0283
lwrist 15.1013
lhand -2.65411 -0.534537
lfingers 7.12502
lthumb 23.0459 28.1075
rfemur -37.6572 -39.5391 22.1044
rtibia 74.7509
rfoot -33.3629 -3.14495
rtoes 14.4088
lfemur -35.8514 40.2531 -13.0946
ltibia 74.5889
lfoot -31.069 5.0474
ltoes 3.43863
